<svg width="235" height="190" viewBox="0 0 235 190" fill="none" xmlns="http://www.w3.org/2000/svg">
<path d="M135.161 64.0635L136.511 62.151C143.164 52.8375 151.941 45.2442 162.115 40.0008C172.288 34.7574 183.566 32.015 195.011 32.001H229.999" stroke="white" stroke-width="10" stroke-linecap="round" stroke-linejoin="round"/>
<path d="M203 5.00098L230 32.001L203 59.001" stroke="white" stroke-width="10" stroke-linecap="round" stroke-linejoin="round"/>
<path d="M5 158.001H30.9875C42.433 157.987 53.7102 155.245 63.8839 150.001C74.0577 144.758 82.8348 137.164 89.4875 127.851L90.8375 125.938" stroke="white" stroke-width="10" stroke-linecap="round" stroke-linejoin="round"/>
<mask id="mask0_438_4130" style="mask-type:alpha" maskUnits="userSpaceOnUse" x="38" y="15" width="160" height="160">
<circle cx="118" cy="95" r="80" fill="url(#paint0_linear_438_4130)"/>
</mask>
<g mask="url(#mask0_438_4130)">
<circle cx="118" cy="95" r="80" fill="url(#paint1_linear_438_4130)"/>
<path d="M14.6154 78.5492C14.6154 78.5492 20.5883 89.0271 25.8685 94.4162C30.9193 99.5712 35.4281 100.719 40.7544 105.6C51.4418 115.395 54.0157 124.079 62.781 135.686C71.6532 147.435 74.6313 155.974 85.9263 165.395C91.5619 170.096 95.3789 172.019 101.696 175.959C107.825 179.782 117.765 185.297 117.765 185.297L102.807 199.75C102.807 199.75 84.6936 186.386 75.3792 175.587C65.7426 164.414 64.5804 154.439 54.7268 143.469C45.0537 132.7 35.1412 131.128 25.7966 120.054C18.1921 111.042 22.1936 97.3561 9.84368 93.9502C6.22662 92.9527 -0.342372 93.0028 -0.342372 93.0028L14.6154 78.5492Z" fill="#492D6A" fill-opacity="0.25"/>
<path d="M24.7576 49.6002C24.7576 49.6002 36.4024 58.7438 42.409 65.9259C48.1547 72.796 49.4602 78.1254 54.9053 85.2412C65.8311 99.5193 75.4639 104.429 88.3806 116.971C101.455 129.665 110.93 134.995 121.447 149.869C126.694 157.29 128.853 162.023 133.264 170.033C137.543 177.802 143.726 190.246 143.726 190.246L159.607 176.813C159.607 176.813 144.672 153.367 132.645 140.397C120.203 126.978 109.152 123.353 96.9317 109.738C84.9352 96.3716 83.117 84.876 70.786 71.8082C60.751 61.1737 45.6343 62.4835 41.7671 47.8246C40.6345 43.5313 40.6383 36.1672 40.6383 36.1672L24.7576 49.6002Z" fill="#492D6A" fill-opacity="0.25"/>
<path d="M189.358 174.907C189.358 174.907 178.916 159.379 170.729 150.706C162.897 142.409 156.836 139.511 148.727 131.486C132.455 115.384 126.832 103.252 112.524 85.3819C98.0415 67.2938 91.9424 55.226 74.9961 39.4224C66.5408 31.5374 61.1536 27.842 52.0331 20.737C43.1861 13.8449 29.0201 3.55915 29.0201 3.55915L44.2078 -10.6526C44.2078 -10.6526 70.9144 12.4152 85.7053 29.4013C101.008 46.9748 105.177 60.3522 120.702 77.7295C135.943 94.7883 149.011 99.9202 163.915 117.274C176.043 131.397 174.625 148.011 191.297 156.294C196.179 158.719 204.546 160.696 204.546 160.696L189.358 174.907Z" fill="#492D6A" fill-opacity="0.25"/>
<path d="M112.215 -1.45129C112.215 -1.45129 118.188 9.02657 123.469 14.4157C128.519 19.5707 133.028 20.7181 138.354 25.5995C149.042 35.3943 151.616 44.0787 160.381 55.6859C169.253 67.4348 172.231 75.9738 183.526 85.395C189.162 90.0956 192.979 92.0185 199.297 95.9589C205.425 99.7812 215.365 105.296 215.365 105.296L200.407 119.75C200.407 119.75 182.294 106.386 172.979 95.5866C163.343 84.414 162.181 74.439 152.327 63.4686C142.654 52.6992 132.741 51.127 123.397 40.0531C115.792 31.0412 119.794 17.3557 107.444 13.9497C103.827 12.9522 97.2577 13.0023 97.2577 13.0023L112.215 -1.45129Z" fill="#492D6A" fill-opacity="0.25"/>
<circle cx="118" cy="95" r="80" fill="url(#paint2_radial_438_4130)"/>
</g>
<path d="M5 32.001H30.9875C42.4329 32.015 53.7101 34.7574 63.8839 40.0008C74.0577 45.2442 82.8348 52.8375 89.4875 62.151L136.512 127.851C143.165 137.164 151.942 144.758 162.116 150.001C172.29 155.245 183.567 157.987 195.012 158.001H230" stroke="white" stroke-width="10" stroke-linecap="round" stroke-linejoin="round"/>
<path d="M203 131.001L230 158.001L203 185.001" stroke="white" stroke-width="10" stroke-linecap="round" stroke-linejoin="round"/>
<defs>
<linearGradient id="paint0_linear_438_4130" x1="38" y1="15" x2="198" y2="175" gradientUnits="userSpaceOnUse">
<stop stop-color="#BB86FC"/>
<stop offset="1" stop-color="#7B61FF"/>
</linearGradient>
<linearGradient id="paint1_linear_438_4130" x1="215" y1="15" x2="38" y2="175" gradientUnits="userSpaceOnUse">
<stop stop-color="#A4EDE1"/>
<stop offset="0.536458" stop-color="#60B5E7"/>
<stop offset="1" stop-color="#7B61FF"/>
</linearGradient>
<radialGradient id="paint2_radial_438_4130" cx="0" cy="0" r="1" gradientUnits="userSpaceOnUse" gradientTransform="translate(150 28.2) rotate(127.342) scale(184.646 400.254)">
<stop stop-color="white" stop-opacity="0.5"/>
<stop offset="0.371325" stop-color="#7B61FF" stop-opacity="0"/>
</radialGradient>
</defs>
</svg>
