<svg width="196" height="211" viewBox="0 0 196 211" fill="none" xmlns="http://www.w3.org/2000/svg">
<path d="M190.545 200.516C190.801 199.348 190.716 198.132 190.301 197.012L98.0439 4.99951L5.75701 197.148C5.34002 198.268 5.25334 199.484 5.50726 200.652C5.76118 201.819 6.34502 202.889 7.18941 203.733C8.03381 204.577 9.10323 205.161 10.2706 205.415C11.438 205.669 12.6542 205.582 13.7747 205.165L98.0435 177.021L182.271 205.042C183.391 205.457 184.607 205.542 185.775 205.286C186.943 205.031 188.013 204.445 188.859 203.6C189.704 202.754 190.29 201.684 190.545 200.516Z" stroke="white" stroke-width="10" stroke-linecap="round" stroke-linejoin="round"/>
<path d="M148.591 180.691V125.071C170.849 153.817 175.882 171.194 171.616 204.432L148.591 180.691Z" fill="url(#paint0_linear_438_4159)"/>
<path d="M47.4093 180.691L47.4093 125.071C25.1511 153.817 20.1182 171.194 24.384 204.432L47.4093 180.691Z" fill="url(#paint1_linear_438_4159)"/>
<g filter="url(#filter0_i_438_4159)">
<rect x="63.4688" y="208.502" width="13.5659" height="69.7739" transform="rotate(-90 63.4688 208.502)" fill="url(#paint2_linear_438_4159)"/>
</g>
<g filter="url(#filter1_ddii_438_4159)">
<path d="M45.3271 194.936C45.6153 152.232 44.6138 110.482 54.8704 80.3645C65.1269 50.2475 85.1718 33.3905 99.3886 33.502C113.605 33.6135 133.416 50.6842 143.265 80.9589C153.114 111.234 151.371 152.232 151.083 194.936L45.3271 194.936Z" fill="url(#paint3_linear_438_4159)"/>
</g>
<g filter="url(#filter2_ii_438_4159)">
<ellipse cx="98.3559" cy="94.5486" rx="20.3488" ry="20.9321" transform="rotate(-90 98.3559 94.5486)" fill="#4379AB"/>
</g>
<path d="M98.356 75.1998C109.391 75.1998 118.288 83.889 118.288 94.5486C118.288 105.208 109.391 113.897 98.356 113.897C87.3209 113.897 78.4238 105.208 78.4238 94.5486C78.4238 83.889 87.3209 75.1998 98.356 75.1998Z" stroke="#243B6D" stroke-opacity="0.5" stroke-width="2"/>
<defs>
<filter id="filter0_i_438_4159" x="61.4688" y="194.937" width="71.7734" height="13.5654" filterUnits="userSpaceOnUse" color-interpolation-filters="sRGB">
<feFlood flood-opacity="0" result="BackgroundImageFix"/>
<feBlend mode="normal" in="SourceGraphic" in2="BackgroundImageFix" result="shape"/>
<feColorMatrix in="SourceAlpha" type="matrix" values="0 0 0 0 0 0 0 0 0 0 0 0 0 0 0 0 0 0 127 0" result="hardAlpha"/>
<feOffset dx="-2"/>
<feGaussianBlur stdDeviation="5"/>
<feComposite in2="hardAlpha" operator="arithmetic" k2="-1" k3="1"/>
<feColorMatrix type="matrix" values="0 0 0 0 0 0 0 0 0 0 0 0 0 0 0 0 0 0 0.25 0"/>
<feBlend mode="normal" in2="shape" result="effect1_innerShadow_438_4159"/>
</filter>
<filter id="filter1_ddii_438_4159" x="35.3271" y="19.5015" width="126.056" height="189.434" filterUnits="userSpaceOnUse" color-interpolation-filters="sRGB">
<feFlood flood-opacity="0" result="BackgroundImageFix"/>
<feColorMatrix in="SourceAlpha" type="matrix" values="0 0 0 0 0 0 0 0 0 0 0 0 0 0 0 0 0 0 127 0" result="hardAlpha"/>
<feOffset dy="4"/>
<feGaussianBlur stdDeviation="5"/>
<feComposite in2="hardAlpha" operator="out"/>
<feColorMatrix type="matrix" values="0 0 0 0 0 0 0 0 0 0 0 0 0 0 0 0 0 0 0.25 0"/>
<feBlend mode="normal" in2="BackgroundImageFix" result="effect1_dropShadow_438_4159"/>
<feColorMatrix in="SourceAlpha" type="matrix" values="0 0 0 0 0 0 0 0 0 0 0 0 0 0 0 0 0 0 127 0" result="hardAlpha"/>
<feOffset dy="-4"/>
<feGaussianBlur stdDeviation="5"/>
<feComposite in2="hardAlpha" operator="out"/>
<feColorMatrix type="matrix" values="0 0 0 0 0 0 0 0 0 0 0 0 0 0 0 0 0 0 0.25 0"/>
<feBlend mode="normal" in2="effect1_dropShadow_438_4159" result="effect2_dropShadow_438_4159"/>
<feBlend mode="normal" in="SourceGraphic" in2="effect2_dropShadow_438_4159" result="shape"/>
<feColorMatrix in="SourceAlpha" type="matrix" values="0 0 0 0 0 0 0 0 0 0 0 0 0 0 0 0 0 0 127 0" result="hardAlpha"/>
<feOffset dx="5" dy="-8"/>
<feGaussianBlur stdDeviation="2.5"/>
<feComposite in2="hardAlpha" operator="arithmetic" k2="-1" k3="1"/>
<feColorMatrix type="matrix" values="0 0 0 0 0.141176 0 0 0 0 0.231373 0 0 0 0 0.427451 0 0 0 0.25 0"/>
<feBlend mode="normal" in2="shape" result="effect3_innerShadow_438_4159"/>
<feColorMatrix in="SourceAlpha" type="matrix" values="0 0 0 0 0 0 0 0 0 0 0 0 0 0 0 0 0 0 127 0" result="hardAlpha"/>
<feOffset dx="-8" dy="1"/>
<feGaussianBlur stdDeviation="2.5"/>
<feComposite in2="hardAlpha" operator="arithmetic" k2="-1" k3="1"/>
<feColorMatrix type="matrix" values="0 0 0 0 1 0 0 0 0 1 0 0 0 0 1 0 0 0 0.5 0"/>
<feBlend mode="normal" in2="effect3_innerShadow_438_4159" result="effect4_innerShadow_438_4159"/>
</filter>
<filter id="filter2_ii_438_4159" x="75.4238" y="72.1997" width="45.8643" height="44.6978" filterUnits="userSpaceOnUse" color-interpolation-filters="sRGB">
<feFlood flood-opacity="0" result="BackgroundImageFix"/>
<feBlend mode="normal" in="SourceGraphic" in2="BackgroundImageFix" result="shape"/>
<feColorMatrix in="SourceAlpha" type="matrix" values="0 0 0 0 0 0 0 0 0 0 0 0 0 0 0 0 0 0 127 0" result="hardAlpha"/>
<feOffset dx="-2" dy="-2"/>
<feGaussianBlur stdDeviation="5"/>
<feComposite in2="hardAlpha" operator="arithmetic" k2="-1" k3="1"/>
<feColorMatrix type="matrix" values="0 0 0 0 0 0 0 0 0 0 0 0 0 0 0 0 0 0 0.25 0"/>
<feBlend mode="normal" in2="shape" result="effect1_innerShadow_438_4159"/>
<feColorMatrix in="SourceAlpha" type="matrix" values="0 0 0 0 0 0 0 0 0 0 0 0 0 0 0 0 0 0 127 0" result="hardAlpha"/>
<feOffset dx="2" dy="2"/>
<feGaussianBlur stdDeviation="5"/>
<feComposite in2="hardAlpha" operator="arithmetic" k2="-1" k3="1"/>
<feColorMatrix type="matrix" values="0 0 0 0 1 0 0 0 0 1 0 0 0 0 1 0 0 0 0.25 0"/>
<feBlend mode="normal" in2="effect1_innerShadow_438_4159" result="effect2_innerShadow_438_4159"/>
</filter>
<linearGradient id="paint0_linear_438_4159" x1="173" y1="204.432" x2="102.633" y2="92.7325" gradientUnits="userSpaceOnUse">
<stop stop-color="#4379AB"/>
<stop offset="1" stop-color="#243B6D"/>
</linearGradient>
<linearGradient id="paint1_linear_438_4159" x1="23" y1="204.432" x2="96.1705" y2="95.3277" gradientUnits="userSpaceOnUse">
<stop stop-color="#4379AB"/>
<stop offset="1" stop-color="#243B6D"/>
</linearGradient>
<linearGradient id="paint2_linear_438_4159" x1="134.69" y1="243.389" x2="7.1703" y2="243.389" gradientUnits="userSpaceOnUse">
<stop stop-color="#243B6D"/>
<stop offset="1" stop-color="#4379AB"/>
</linearGradient>
<linearGradient id="paint3_linear_438_4159" x1="176.502" y1="232.92" x2="50.9049" y2="0.640527" gradientUnits="userSpaceOnUse">
<stop stop-color="#BB86FC"/>
<stop offset="0.494792" stop-color="#60B5E7"/>
<stop offset="1" stop-color="#48DAC3"/>
</linearGradient>
</defs>
</svg>
