<svg width="292" height="80" viewBox="0 0 292 80" fill="none" xmlns="http://www.w3.org/2000/svg">
<path d="M43.6884 34L34.6084 6H42.7684L50.4084 30.24H46.2884L54.3284 6H61.6084L69.2084 30.24H65.2484L73.1284 6H80.6884L71.6084 34H63.1284L56.6484 13.4H58.9284L52.1684 34H43.6884ZM92.9247 34.36C90.3647 34.36 88.1247 33.88 86.2047 32.92C84.3114 31.9333 82.8314 30.6 81.7647 28.92C80.7247 27.2133 80.2047 25.28 80.2047 23.12C80.2047 20.96 80.7114 19.04 81.7247 17.36C82.7647 15.6533 84.1914 14.3333 86.0047 13.4C87.818 12.44 89.858 11.96 92.1247 11.96C94.258 11.96 96.2047 12.4 97.9647 13.28C99.7247 14.1333 101.125 15.4 102.165 17.08C103.205 18.76 103.725 20.8 103.725 23.2C103.725 23.4667 103.711 23.7733 103.685 24.12C103.658 24.4667 103.631 24.7867 103.605 25.08H86.4447V21.08H99.5647L96.6847 22.2C96.7114 21.2133 96.5247 20.36 96.1247 19.64C95.7514 18.92 95.218 18.36 94.5247 17.96C93.858 17.56 93.0714 17.36 92.1647 17.36C91.258 17.36 90.458 17.56 89.7647 17.96C89.098 18.36 88.578 18.9333 88.2047 19.68C87.8314 20.4 87.6447 21.2533 87.6447 22.24V23.4C87.6447 24.4667 87.858 25.3867 88.2847 26.16C88.738 26.9333 89.378 27.5333 90.2047 27.96C91.0314 28.36 92.018 28.56 93.1647 28.56C94.2314 28.56 95.138 28.4133 95.8847 28.12C96.658 27.8 97.418 27.32 98.1647 26.68L102.165 30.84C101.125 31.9867 99.8447 32.8667 98.3247 33.48C96.8047 34.0667 95.0047 34.36 92.9247 34.36ZM107.229 34V4.32H114.829V34H107.229ZM130.848 34.36C128.448 34.36 126.301 33.88 124.408 32.92C122.541 31.96 121.074 30.64 120.008 28.96C118.941 27.2533 118.408 25.3067 118.408 23.12C118.408 20.9333 118.941 19 120.008 17.32C121.074 15.64 122.541 14.3333 124.408 13.4C126.301 12.44 128.448 11.96 130.848 11.96C133.301 11.96 135.421 12.48 137.208 13.52C138.994 14.56 140.261 16.0267 141.008 17.92L135.128 20.92C134.621 19.9067 133.994 19.1733 133.248 18.72C132.501 18.24 131.688 18 130.808 18C129.928 18 129.128 18.2 128.408 18.6C127.688 19 127.114 19.5867 126.688 20.36C126.288 21.1067 126.088 22.0267 126.088 23.12C126.088 24.24 126.288 25.1867 126.688 25.96C127.114 26.7333 127.688 27.32 128.408 27.72C129.128 28.12 129.928 28.32 130.808 28.32C131.688 28.32 132.501 28.0933 133.248 27.64C133.994 27.16 134.621 26.4133 135.128 25.4L141.008 28.4C140.261 30.2933 138.994 31.76 137.208 32.8C135.421 33.84 133.301 34.36 130.848 34.36ZM154.515 34.36C152.142 34.36 150.035 33.88 148.195 32.92C146.355 31.96 144.902 30.64 143.835 28.96C142.795 27.2533 142.275 25.3067 142.275 23.12C142.275 20.9333 142.795 19 143.835 17.32C144.902 15.64 146.355 14.3333 148.195 13.4C150.035 12.44 152.142 11.96 154.515 11.96C156.888 11.96 158.995 12.44 160.835 13.4C162.702 14.3333 164.155 15.64 165.195 17.32C166.235 19 166.755 20.9333 166.755 23.12C166.755 25.3067 166.235 27.2533 165.195 28.96C164.155 30.64 162.702 31.96 160.835 32.92C158.995 33.88 156.888 34.36 154.515 34.36ZM154.515 28.32C155.395 28.32 156.168 28.12 156.835 27.72C157.528 27.32 158.075 26.7333 158.475 25.96C158.875 25.16 159.075 24.2133 159.075 23.12C159.075 22.0267 158.875 21.1067 158.475 20.36C158.075 19.5867 157.528 19 156.835 18.6C156.168 18.2 155.395 18 154.515 18C153.662 18 152.888 18.2 152.195 18.6C151.528 19 150.982 19.5867 150.555 20.36C150.155 21.1067 149.955 22.0267 149.955 23.12C149.955 24.2133 150.155 25.16 150.555 25.96C150.982 26.7333 151.528 27.32 152.195 27.72C152.888 28.12 153.662 28.32 154.515 28.32ZM198.516 11.96C200.196 11.96 201.689 12.3067 202.996 13C204.329 13.6667 205.369 14.7067 206.116 16.12C206.889 17.5333 207.276 19.36 207.276 21.6V34H199.676V22.84C199.676 21.2933 199.382 20.1733 198.796 19.48C198.209 18.76 197.409 18.4 196.396 18.4C195.676 18.4 195.022 18.5733 194.436 18.92C193.849 19.2667 193.396 19.8 193.076 20.52C192.756 21.2133 192.596 22.12 192.596 23.24V34H184.996V22.84C184.996 21.2933 184.702 20.1733 184.116 19.48C183.556 18.76 182.756 18.4 181.716 18.4C180.969 18.4 180.302 18.5733 179.716 18.92C179.156 19.2667 178.702 19.8 178.356 20.52C178.036 21.2133 177.876 22.12 177.876 23.24V34H170.276V12.32H177.516V18.36L176.076 16.64C176.876 15.0933 177.969 13.9333 179.356 13.16C180.742 12.36 182.289 11.96 183.996 11.96C185.942 11.96 187.649 12.4667 189.116 13.48C190.609 14.4667 191.609 16.0133 192.116 18.12L189.636 17.6C190.409 15.84 191.569 14.4667 193.116 13.48C194.689 12.4667 196.489 11.96 198.516 11.96ZM223.706 34.36C221.146 34.36 218.906 33.88 216.986 32.92C215.093 31.9333 213.613 30.6 212.546 28.92C211.506 27.2133 210.986 25.28 210.986 23.12C210.986 20.96 211.493 19.04 212.506 17.36C213.546 15.6533 214.973 14.3333 216.786 13.4C218.599 12.44 220.639 11.96 222.906 11.96C225.039 11.96 226.986 12.4 228.746 13.28C230.506 14.1333 231.906 15.4 232.946 17.08C233.986 18.76 234.506 20.8 234.506 23.2C234.506 23.4667 234.493 23.7733 234.466 24.12C234.439 24.4667 234.413 24.7867 234.386 25.08H217.226V21.08H230.346L227.466 22.2C227.493 21.2133 227.306 20.36 226.906 19.64C226.533 18.92 225.999 18.36 225.306 17.96C224.639 17.56 223.853 17.36 222.946 17.36C222.039 17.36 221.239 17.56 220.546 17.96C219.879 18.36 219.359 18.9333 218.986 19.68C218.613 20.4 218.426 21.2533 218.426 22.24V23.4C218.426 24.4667 218.639 25.3867 219.066 26.16C219.519 26.9333 220.159 27.5333 220.986 27.96C221.813 28.36 222.799 28.56 223.946 28.56C225.013 28.56 225.919 28.4133 226.666 28.12C227.439 27.8 228.199 27.32 228.946 26.68L232.946 30.84C231.906 31.9867 230.626 32.8667 229.106 33.48C227.586 34.0667 225.786 34.36 223.706 34.36Z" fill="white"/>
<path d="M96.2625 46.3203V47.9844H89.4071V46.3203H96.2625ZM91.7274 43.2383H93.8954V55.8594C93.8954 56.2891 93.9618 56.6133 94.0946 56.832C94.2274 57.0508 94.3993 57.1953 94.6102 57.2656C94.8211 57.3359 95.0477 57.3711 95.2899 57.3711C95.4696 57.3711 95.6571 57.3555 95.8524 57.3242C96.0555 57.2852 96.2079 57.2539 96.3094 57.2305L96.3211 59C96.1493 59.0547 95.9227 59.1055 95.6414 59.1523C95.368 59.207 95.036 59.2344 94.6454 59.2344C94.1141 59.2344 93.6258 59.1289 93.1805 58.918C92.7352 58.707 92.3797 58.3555 92.1141 57.8633C91.8563 57.3633 91.7274 56.6914 91.7274 55.8477V43.2383ZM97.9969 52.8008V52.5312C97.9969 51.6172 98.1297 50.7695 98.3954 49.9883C98.661 49.1992 99.0438 48.5156 99.5438 47.9375C100.044 47.3516 100.649 46.8984 101.36 46.5781C102.071 46.25 102.868 46.0859 103.751 46.0859C104.641 46.0859 105.442 46.25 106.153 46.5781C106.872 46.8984 107.481 47.3516 107.981 47.9375C108.489 48.5156 108.876 49.1992 109.141 49.9883C109.407 50.7695 109.54 51.6172 109.54 52.5312V52.8008C109.54 53.7148 109.407 54.5625 109.141 55.3438C108.876 56.125 108.489 56.8086 107.981 57.3945C107.481 57.9727 106.876 58.4258 106.165 58.7539C105.462 59.0742 104.665 59.2344 103.774 59.2344C102.884 59.2344 102.083 59.0742 101.372 58.7539C100.661 58.4258 100.052 57.9727 99.5438 57.3945C99.0438 56.8086 98.661 56.125 98.3954 55.3438C98.1297 54.5625 97.9969 53.7148 97.9969 52.8008ZM100.165 52.5312V52.8008C100.165 53.4336 100.239 54.0312 100.388 54.5938C100.536 55.1484 100.759 55.6406 101.056 56.0703C101.36 56.5 101.739 56.8398 102.192 57.0898C102.645 57.332 103.173 57.4531 103.774 57.4531C104.368 57.4531 104.888 57.332 105.333 57.0898C105.786 56.8398 106.161 56.5 106.458 56.0703C106.755 55.6406 106.977 55.1484 107.126 54.5938C107.282 54.0312 107.36 53.4336 107.36 52.8008V52.5312C107.36 51.9062 107.282 51.3164 107.126 50.7617C106.977 50.1992 106.751 49.7031 106.446 49.2734C106.149 48.8359 105.774 48.4922 105.321 48.2422C104.876 47.9922 104.352 47.8672 103.751 47.8672C103.157 47.8672 102.634 47.9922 102.181 48.2422C101.735 48.4922 101.36 48.8359 101.056 49.2734C100.759 49.7031 100.536 50.1992 100.388 50.7617C100.239 51.3164 100.165 51.9062 100.165 52.5312Z" fill="white"/>
<path d="M120.362 74.5V46.5H133.162C135.722 46.5 137.922 46.9133 139.762 47.74C141.628 48.5667 143.068 49.7667 144.082 51.34C145.095 52.8867 145.602 54.7267 145.602 56.86C145.602 58.9667 145.095 60.7933 144.082 62.34C143.068 63.8867 141.628 65.0867 139.762 65.94C137.922 66.7667 135.722 67.18 133.162 67.18H124.762L128.282 63.74V74.5H120.362ZM128.282 64.58L124.762 60.94H132.682C134.335 60.94 135.562 60.58 136.362 59.86C137.188 59.14 137.602 58.14 137.602 56.86C137.602 55.5533 137.188 54.54 136.362 53.82C135.562 53.1 134.335 52.74 132.682 52.74H124.762L128.282 49.1V64.58Z" fill="white"/>
<mask id="mask0_542_1079" style="mask-type:alpha" maskUnits="userSpaceOnUse" x="152" y="40" width="41" height="40">
<circle cx="172.308" cy="60" r="20" fill="white"/>
</mask>
<g mask="url(#mask0_542_1079)">
<circle cx="172.308" cy="60" r="20" fill="url(#paint0_linear_542_1079)"/>
<path d="M146.461 55.8875C146.461 55.8875 147.955 58.507 149.275 59.8543C150.537 61.143 151.665 61.4299 152.996 62.6502C155.668 65.0989 156.311 67.27 158.503 70.1718C160.721 73.1091 161.465 75.2438 164.289 77.5991C165.698 78.7742 166.652 79.255 168.232 80.2401C169.764 81.1956 172.249 82.5745 172.249 82.5745L168.509 86.1878C168.509 86.1878 163.981 82.8468 161.652 80.147C159.243 77.3539 158.953 74.8601 156.489 72.1175C154.071 69.4252 151.593 69.0321 149.257 66.2636C147.356 64.0107 148.356 60.5893 145.268 59.7378C144.364 59.4884 142.722 59.5009 142.722 59.5009L146.461 55.8875Z" fill="#492D6A" fill-opacity="0.25"/>
<path d="M148.997 48.6505C148.997 48.6505 151.908 50.9364 153.41 52.732C154.846 54.4495 155.173 55.7818 156.534 57.5608C159.265 61.1303 161.674 62.3578 164.903 65.4932C168.171 68.6668 170.54 69.9993 173.169 73.7176C174.481 75.5729 175.021 76.7561 176.124 78.7586C177.193 80.7011 178.739 83.812 178.739 83.812L182.709 80.4538C182.709 80.4538 178.976 74.5921 175.969 71.3496C172.858 67.995 170.096 67.0887 167.041 63.6849C164.041 60.3434 163.587 57.4695 160.504 54.2025C157.995 51.5439 154.216 51.8714 153.249 48.2066C152.966 47.1333 152.967 45.2923 152.967 45.2923L148.997 48.6505Z" fill="#492D6A" fill-opacity="0.25"/>
<path d="M190.147 79.9776C190.147 79.9776 187.537 76.0954 185.49 73.9272C183.532 71.8531 182.017 71.1285 179.99 69.1223C175.922 65.0967 174.516 62.0637 170.939 57.5962C167.318 53.0742 165.793 50.0572 161.557 46.1063C159.443 44.1351 158.096 43.2112 155.816 41.435C153.604 39.712 150.063 37.1405 150.063 37.1405L153.86 33.5876C153.86 33.5876 160.536 39.3545 164.234 43.6011C168.06 47.9944 169.102 51.3388 172.983 55.6831C176.794 59.9478 180.061 61.2308 183.787 65.5693C186.819 69.1 186.464 73.2536 190.632 75.3242C191.853 75.9306 193.944 76.4246 193.944 76.4246L190.147 79.9776Z" fill="#492D6A" fill-opacity="0.25"/>
<path d="M170.861 35.8875C170.861 35.8875 172.354 38.507 173.675 39.8543C174.937 41.143 176.064 41.4299 177.396 42.6503C180.068 45.0989 180.711 47.27 182.903 50.1718C185.121 53.1091 185.865 55.2438 188.689 57.5991C190.098 58.7743 191.052 59.255 192.632 60.2401C194.164 61.1957 196.649 62.5745 196.649 62.5745L192.909 66.1879C192.909 66.1879 188.381 62.8468 186.052 60.147C183.643 57.3539 183.353 54.8601 180.889 52.1175C178.471 49.4252 175.993 49.0321 173.657 46.2636C171.755 44.0107 172.756 40.5893 169.668 39.7378C168.764 39.4884 167.122 39.5009 167.122 39.5009L170.861 35.8875Z" fill="#492D6A" fill-opacity="0.25"/>
<circle cx="172.308" cy="60" r="20" fill="url(#paint1_radial_542_1079)"/>
</g>
<path d="M200.604 74.5V46.5H207.124L222.564 65.14H219.484V46.5H227.244V74.5H220.724L205.284 55.86H208.364V74.5H200.604ZM246.83 75.06C244.617 75.06 242.564 74.7133 240.67 74.02C238.777 73.3 237.137 72.2867 235.75 70.98C234.39 69.6733 233.324 68.14 232.55 66.38C231.777 64.5933 231.39 62.6333 231.39 60.5C231.39 58.3667 231.777 56.42 232.55 54.66C233.324 52.8733 234.404 51.3267 235.79 50.02C237.177 48.7133 238.817 47.7133 240.71 47.02C242.63 46.3 244.724 45.94 246.99 45.94C249.63 45.94 251.99 46.38 254.07 47.26C256.15 48.14 257.87 49.4067 259.23 51.06L254.19 55.62C253.23 54.58 252.19 53.8067 251.07 53.3C249.977 52.7667 248.75 52.5 247.39 52.5C246.19 52.5 245.097 52.6867 244.11 53.06C243.124 53.4333 242.284 53.98 241.59 54.7C240.897 55.3933 240.35 56.2333 239.95 57.22C239.577 58.18 239.39 59.2733 239.39 60.5C239.39 61.6733 239.577 62.7533 239.95 63.74C240.35 64.7267 240.897 65.58 241.59 66.3C242.284 66.9933 243.11 67.54 244.07 67.94C245.057 68.3133 246.137 68.5 247.31 68.5C248.484 68.5 249.63 68.3133 250.75 67.94C251.87 67.54 253.004 66.8733 254.15 65.94L258.59 71.5C256.99 72.6467 255.137 73.5267 253.03 74.14C250.924 74.7533 248.857 75.06 246.83 75.06ZM251.59 70.46V59.9H258.59V71.5L251.59 70.46Z" fill="white"/>
<defs>
<linearGradient id="paint0_linear_542_1079" x1="152.308" y1="40" x2="192.308" y2="80" gradientUnits="userSpaceOnUse">
<stop stop-color="#DDC3FE"/>
<stop offset="1" stop-color="#7B61FF"/>
</linearGradient>
<radialGradient id="paint1_radial_542_1079" cx="0" cy="0" r="1" gradientUnits="userSpaceOnUse" gradientTransform="translate(180.308 43.3) rotate(127.342) scale(46.1616 100.063)">
<stop stop-color="white" stop-opacity="0.5"/>
<stop offset="0.371325" stop-color="#7B61FF" stop-opacity="0"/>
</radialGradient>
</defs>
</svg>
