<svg width="169" height="208" viewBox="0 0 169 208" fill="none" xmlns="http://www.w3.org/2000/svg">
<mask id="mask0_438_4188" style="mask-type:alpha" maskUnits="userSpaceOnUse" x="9" y="58" width="150" height="150">
<circle cx="84" cy="133" r="75" fill="url(#paint0_linear_438_4188)"/>
</mask>
<g mask="url(#mask0_438_4188)">
<circle cx="84" cy="133" r="75" fill="url(#paint1_linear_438_4188)"/>
<path d="M-12.9246 117.577C-12.9246 117.577 -7.32501 127.4 -2.37485 132.452C2.36026 137.285 6.58727 138.361 11.5807 142.937C21.6001 152.12 24.0132 160.262 32.2306 171.143C40.5484 182.158 43.3403 190.163 53.9293 198.996C59.2127 203.402 62.7911 205.205 68.7139 208.899C74.459 212.483 83.778 217.653 83.778 217.653L69.7551 231.203C69.7551 231.203 52.7737 218.674 44.0414 208.55C35.0072 198.076 33.9176 188.724 24.6798 178.44C15.6113 168.343 6.31828 166.869 -2.44221 156.488C-9.57144 148.039 -5.82004 135.209 -17.3981 132.016C-20.7891 131.08 -26.9475 131.127 -26.9475 131.127L-12.9246 117.577Z" fill="#492D6A" fill-opacity="0.25"/>
<path d="M-3.41509 90.4376C-3.41509 90.4376 7.50184 99.0097 13.1331 105.743C18.5197 112.184 19.7436 117.18 24.8484 123.851C35.0913 137.237 44.122 141.84 56.2315 153.597C68.4888 165.499 77.3717 170.495 87.2313 184.439C92.1507 191.396 94.1742 195.834 98.3098 203.343C102.321 210.627 108.118 222.293 108.118 222.293L123.006 209.7C123.006 209.7 109.004 187.719 97.7293 175.559C86.0645 162.979 75.7048 159.581 64.2481 146.816C53.0014 134.286 51.2968 123.509 39.7365 111.258C30.3287 101.288 16.1568 102.516 12.5313 88.773C11.4695 84.748 11.473 77.8442 11.473 77.8442L-3.41509 90.4376Z" fill="#492D6A" fill-opacity="0.25"/>
<path d="M150.898 207.913C150.898 207.913 141.108 193.355 133.433 185.224C126.09 177.447 120.409 174.729 112.806 167.206C97.551 152.11 92.2797 140.736 78.8658 123.983C65.2883 107.026 59.5704 95.7122 43.6832 80.8963C35.7564 73.5041 30.7059 70.0397 22.1554 63.3787C13.8613 56.9174 0.580708 47.2745 0.580708 47.2745L14.8192 33.9509C14.8192 33.9509 39.8566 55.577 53.7231 71.5015C68.0691 87.9767 71.9781 100.518 86.5327 116.809C100.821 132.802 113.072 137.613 127.044 153.882C138.415 167.122 137.085 182.699 152.715 190.463C157.293 192.737 165.136 194.59 165.136 194.59L150.898 207.913Z" fill="#492D6A" fill-opacity="0.25"/>
<path d="M78.5763 42.5772C78.5763 42.5772 84.176 52.4002 89.1261 57.4525C93.8612 62.2853 98.0882 63.361 103.082 67.9373C113.101 77.1199 115.514 85.2615 123.732 96.1433C132.049 107.158 134.841 115.163 145.43 123.996C150.714 128.402 154.292 130.205 160.215 133.899C165.96 137.483 175.279 142.653 175.279 142.653L161.256 156.203C161.256 156.203 144.275 143.674 135.542 133.55C126.508 123.076 125.419 113.724 116.181 103.44C107.112 93.3433 97.8193 91.8694 89.0588 81.4876C81.9295 73.0389 85.6809 60.2087 74.1029 57.0156C70.7119 56.0804 64.5534 56.1274 64.5534 56.1274L78.5763 42.5772Z" fill="#492D6A" fill-opacity="0.25"/>
<circle cx="84" cy="133" r="75" fill="url(#paint2_radial_438_4188)"/>
</g>
<path d="M84.3129 5C27.6608 5 5 57.5766 5 57.5766C5 57.5766 27.6608 110.153 84.3129 110.153C140.965 110.153 163.626 57.5766 163.626 57.5766C163.626 57.5766 140.965 5 84.3129 5Z" stroke="white" stroke-width="10" stroke-linecap="round" stroke-linejoin="round"/>
<path d="M84.3123 86.7866C99.9564 86.7866 112.638 73.7092 112.638 57.5774C112.638 41.4456 99.9564 28.3682 84.3123 28.3682C68.6683 28.3682 55.9863 41.4456 55.9863 57.5774C55.9863 73.7092 68.6683 86.7866 84.3123 86.7866Z" fill="white"/>
<defs>
<linearGradient id="paint0_linear_438_4188" x1="9" y1="58" x2="159" y2="208" gradientUnits="userSpaceOnUse">
<stop stop-color="#BB86FC"/>
<stop offset="1" stop-color="#7B61FF"/>
</linearGradient>
<linearGradient id="paint1_linear_438_4188" x1="9" y1="58" x2="159" y2="208" gradientUnits="userSpaceOnUse">
<stop stop-color="#A4EDE1"/>
<stop offset="0.536458" stop-color="#60B5E7"/>
<stop offset="1" stop-color="#7B61FF"/>
</linearGradient>
<radialGradient id="paint2_radial_438_4188" cx="0" cy="0" r="1" gradientUnits="userSpaceOnUse" gradientTransform="translate(114 70.375) rotate(127.342) scale(173.106 375.238)">
<stop stop-color="white" stop-opacity="0.5"/>
<stop offset="0.371325" stop-color="#7B61FF" stop-opacity="0"/>
</radialGradient>
</defs>
</svg>
